<svg viewBox="0 0 834 834" xmlns="http://www.w3.org/2000/svg" fill-rule="evenodd" clip-rule="evenodd" stroke-linejoin="round" stroke-miterlimit="2"><path fill="none" d="M0 0h833.333v833.333H0z"/><clipPath id="a"><path d="M0 0h833.333v833.333H0z"/></clipPath><g clip-path="url(#a)"><ellipse cx="411.39" cy="400.973" rx="328.057" ry="350.973" fill="#fff"/><path d="M416.71 0c229.988 0 416.71 186.702 416.71 416.667 0 229.964-186.722 416.666-416.71 416.666C186.721 833.333 0 646.631 0 416.667 0 186.702 186.721 0 416.71 0zM212.409 150.719c15.737-13.474 37.817-24.541 57.013-16.748 34.516 14.014 127.253 200.961 127.253 200.961s129.718-184.271 176.308-201.074c15.894-5.732 37.684 4.35 54.303 16.774 58.328 43.602 64.355 104.434 59.313 121.31-6.339 21.217-328.551 430.004-328.551 430.005-9.636-3.93-200.55-358.237-210.896-418.861-9.887-57.935 23.752-97.299 65.257-132.367z" fill="#3165d4"/></g></svg>