<svg viewBox="0 0 10313 834" xmlns="http://www.w3.org/2000/svg" fill-rule="evenodd" clip-rule="evenodd" stroke-linecap="round" stroke-linejoin="round" stroke-miterlimit="1.5"><path fill="none" d="M0 0h10312.5v833.333H0z"/><clipPath id="a"><path d="M0 0h10312.5v833.333H0z"/></clipPath><g clip-path="url(#a)"><g fill="#3165d4" fill-rule="nonzero"><path d="M1284.69 642.553l173.777-451.773h-72.986l-138.153 374.451-139.022-374.451h-73.855l174.646 451.773h75.593zM1478.6 418.322c0 132.387 90.198 224.231 220.945 224.231 97.646 0 153.917-52.955 177.914-93.499l-43.03-31.442c-20.688 28.96-61.236 67.022-134.057 67.022-89.371 0-153.916-57.92-154.744-153.901H1890.7c.827-8.274.827-17.376.827-19.858 0-129.078-77.786-220.095-204.395-220.095-114.196 0-208.532 90.189-208.532 227.542zm70.338-36.407c4.965-81.088 67.856-134.87 138.194-134.87 71.166 0 133.229 45.508 137.367 134.87h-275.561zM2153.59 178.48c-68.791 0-119.295 41.793-134.969 87.068v-75.749H1950.7v452.754h68.791V425.754c0-96.646 30.477-178.49 134.099-178.49V178.48zM2372.17 642.125c60.269 0 110.351-34.8 130.724-74.692v63.658h67.059V189.733h-67.908v268.209c0 72.994-46.687 123.072-114.595 123.072-59.42 0-104.409-42.439-104.409-112.886V189.733h-67.06v275.848c0 100.155 53.478 176.544 156.189 176.544zM2616.21 550.519c19.033 40.544 59.581 91.844 149.779 91.844 83.579 0 146.469-51.3 146.469-127.423 0-149.764-216.807-113.357-216.807-210.166 0-37.234 31.445-59.574 71.166-59.574 55.443 0 77.786 32.269 89.371 55.437l47.995-27.305c-11.585-32.269-52.96-82.742-133.229-82.742-77.786 0-138.194 43.853-138.194 116.667 0 145.626 215.98 111.702 215.98 210.993 0 43.853-36.41 68.676-79.441 68.676-58.753 0-89.371-32.27-107.576-66.194l-45.513 29.787z"/></g><ellipse cx="417.64" cy="396.807" rx="334.307" ry="355.14" fill="#fff"/><path d="M416.71 0c229.988 0 416.71 186.702 416.71 416.667 0 229.964-186.722 416.666-416.71 416.666C186.721 833.333 0 646.631 0 416.667 0 186.702 186.721 0 416.71 0zM212.409 150.719c15.737-13.474 37.817-24.541 57.013-16.748 34.516 14.014 127.253 200.961 127.253 200.961s129.718-184.271 176.308-201.074c15.894-5.732 37.684 4.35 54.303 16.774 58.328 43.602 64.355 104.434 59.313 121.31-6.339 21.217-328.551 430.004-328.551 430.005-9.636-3.93-200.55-358.237-210.896-418.861-9.887-57.935 23.752-97.299 65.257-132.367z" fill="#3165d4"/><text x="4719.9" y="562.204" font-family="'SourceSansPro-Regular','Source Sans Pro',sans-serif" font-size="565.193">T<tspan x="4996.87" y="562.204">r</tspan>uth<tspan x="5999.06" y="562.204"> </tspan>and<tspan x="7019.91" y="562.204"> </tspan>Priv<tspan x="8040.75px 8325.64px 8586.79px" y="562.204px 562.204px 562.204px">acy</tspan> f<tspan x="9123.21" y="562.204">o</tspan>r Al<tspan x="10190.4" y="562.204">l</tspan></text><path d="M4071.41 0l-481.175 833.333" fill="none" stroke="#000" stroke-opacity=".37" stroke-width="4.17"/></g></svg>