<?xml version="1.0" encoding="UTF-8" standalone="no"?><!DOCTYPE svg PUBLIC "-//W3C//DTD SVG 1.1//EN" "http://www.w3.org/Graphics/SVG/1.1/DTD/svg11.dtd"><svg width="100%" height="100%" viewBox="0 0 7305 2084" version="1.1" xmlns="http://www.w3.org/2000/svg" xmlns:xlink="http://www.w3.org/1999/xlink" xml:space="preserve" xmlns:serif="http://www.serif.com/" style="fill-rule:evenodd;clip-rule:evenodd;stroke-linejoin:round;stroke-miterlimit:2;"><g><g><path d="M3211.03,1606.38l434.349,-1129.43l-182.427,0l-345.307,936.126l-347.48,-936.126l-184.598,0l436.521,1129.43l188.942,0Z" style="fill:#fff;fill-rule:nonzero;"/><path d="M3695.7,1045.8c-0,330.969 225.447,560.579 552.243,560.579c244.063,0 384.709,-132.387 444.691,-233.747l-107.553,-78.605c-51.708,72.399 -153.056,167.553 -335.069,167.553c-223.38,0 -384.709,-144.799 -386.778,-384.752l862.493,0c2.069,-20.685 2.069,-43.44 2.069,-49.645c-0,-322.695 -194.423,-550.237 -510.878,-550.237c-285.429,0 -521.218,225.473 -521.218,568.854Zm175.808,-91.017c12.41,-202.719 169.603,-337.175 345.41,-337.175c177.877,0 333.001,113.771 343.343,337.175l-688.753,0Z" style="fill:#fff;fill-rule:nonzero;"/><path d="M5382.8,446.201c-171.94,-0 -298.175,104.481 -337.351,217.67l-0,-189.373l-169.764,-0l0,1131.88l171.94,0l0,-541.999c0,-241.614 76.177,-446.224 335.175,-446.224l0,-171.959Z" style="fill:#fff;fill-rule:nonzero;"/><path d="M5939.77,1636.06c154.735,-0 283.317,-89.364 335.622,-191.805l-0,163.47l172.169,0l0,-1133.39l-174.349,0l0,688.756c0,187.446 -119.865,316.042 -294.214,316.042c-152.555,0 -268.061,-108.98 -268.061,-289.887l-0,-714.911l-172.17,0l0,708.372c0,257.193 137.3,453.358 401.003,453.358Z" style="fill:#fff;fill-rule:nonzero;"/><path d="M6563.7,1376.3c47.572,101.359 148.92,229.61 374.368,229.61c208.901,-0 366.094,-128.251 366.094,-318.558c-0,-374.409 -541.902,-283.393 -541.902,-525.414c-0,-93.085 78.596,-148.936 177.876,-148.936c138.578,-0 194.423,80.673 223.379,138.593l119.963,-68.262c-28.956,-80.674 -132.373,-206.856 -333,-206.856c-194.423,-0 -345.411,109.633 -345.411,291.666c-0,364.067 539.833,279.256 539.833,527.483c0,109.634 -91.006,171.69 -198.559,171.69c-146.851,0 -223.38,-80.673 -268.883,-165.484l-113.758,74.468Z" style="fill:#fff;fill-rule:nonzero;"/></g><g><path d="M1041.55,-0c574.848,-0 1041.55,466.755 1041.55,1041.67c-0,574.911 -466.703,1041.67 -1041.55,1041.67c-574.847,0 -1041.55,-466.755 -1041.55,-1041.67c0,-574.912 466.703,-1041.67 1041.55,-1041.67Zm-510.641,376.797c39.334,-33.684 94.522,-61.353 142.5,-41.869c86.273,35.035 318.066,502.401 318.066,502.401c-0,-0 324.223,-460.675 440.674,-502.684c39.727,-14.331 94.19,10.876 135.728,41.934c145.789,109.007 160.852,261.087 148.25,303.277c-15.844,53.042 -821.199,1075.01 -821.199,1075.01c-24.085,-9.824 -501.267,-895.591 -527.126,-1047.15c-24.712,-144.838 59.367,-243.249 163.107,-330.919Z" style="fill:#fff;"/></g></g></svg>