<svg viewBox="0 0 6646 834" xmlns="http://www.w3.org/2000/svg" fill-rule="evenodd" clip-rule="evenodd" stroke-linejoin="round" stroke-miterlimit="2"><path d="M416.71 0c229.988 0 416.71 186.702 416.71 416.667 0 229.964-186.722 416.666-416.71 416.666C186.721 833.333 0 646.631 0 416.667 0 186.702 186.721 0 416.71 0zM212.409 150.719c15.737-13.474 37.817-24.541 57.013-16.748 34.516 14.014 127.253 200.961 127.253 200.961s129.718-184.271 176.308-201.074c15.894-5.732 37.684 4.35 54.303 16.774 58.328 43.602 64.355 104.434 59.313 121.31-6.339 21.217-328.551 430.004-328.551 430.005-9.636-3.93-200.55-358.237-210.896-418.861-9.887-57.935 23.752-97.299 65.257-132.367z" fill="#fff"/><text x="1053.23" y="583.037" font-family="'SourceSansPro-Regular','Source Sans Pro',sans-serif" font-size="565.193" fill="#fff">T<tspan x="1330.2" y="583.037">r</tspan>uth<tspan x="2332.4" y="583.037"> </tspan>and<tspan x="3353.24" y="583.037"> </tspan>Priv<tspan x="4374.09px 4658.97px 4920.12px" y="583.037px 583.037px 583.037px">acy</tspan> f<tspan x="5456.54" y="583.037">o</tspan>r Al<tspan x="6523.74" y="583.037">l</tspan></text></svg>