<svg height="185.33333" viewBox="0 0 185.33333 185.33333" width="185.33333" xmlns="http://www.w3.org/2000/svg"><g fill-rule="evenodd" transform="matrix(.13333333 0 0 -.13333333 0 185.33333)"><path d="m696.102 1387.61c382.258 0 692.608-310.35 692.608-692.61 0-382.262-310.35-692.60937-692.608-692.60937-382.262 0-692.61372 310.34737-692.61372 692.60937 0 382.26 310.35172 692.61 692.61372 692.61" fill="#3165d4"/><path d="m364.711 1126.44c25.519 21.86 61.34 39.81 92.48 27.17 55.981-22.74 206.411-326.008 206.411-326.008s210.418 298.928 285.988 326.188c25.781 9.3 61.13-7.06 88.09-27.21 94.61-70.73 104.39-169.42 96.21-196.799-10.28-34.422-532.941-697.582-532.941-697.582-15.629 6.371-325.32 581.153-342.097 679.5-16.043 93.991 38.527 157.851 105.859 214.741" fill="#fff"/></g></svg>