<svg height="230.66667" viewBox="0 0 756 230.66667" width="756" xmlns="http://www.w3.org/2000/svg"><g fill="#ffffff" transform="matrix(.13333333 0 0 -.13333333 0 230.66667)"><path d="m3286.34 951.469-129.39 9.492c-125.82 0-216.39-39.563-271.73-118.691l-202.73-813.0786h-400.01l320.22 1284.2986h375.08l-28.08-164.98c98.63 125.81 208.09 188.72 328.37 188.72 42.73 0 78.74-4.74 108.02-14.24z"/><path d="m3913 168.07c-111.7-108.4098-239.56-162.62078-383.58-162.62078-140.85 0-237.27 40.94918-289.26 122.85178-51.98 81.898-58.84 199.609-20.56 353.129l207.45 832.06h400.01l-208.05-834.439c-27.42-109.992 12.28-164.992 119.11-164.992 91.79 0 165.26 32.839 220.41 98.519l224.63 900.912h402.38l-320.21-1284.2986h-375.09z"/><path d="m5129.47 390.031c8.49 34.028-2.51 61.328-32.99 81.899-30.48 20.582-92.81 41.941-186.99 64.101-94.18 22.149-169.23 51.239-225.14 87.239-55.91 36.011-94.47 79.73-115.67 131.16-21.2 51.441-23.52 110.39-6.94 176.859 29.39 117.911 102.28 215.041 218.65 291.401s253.29 114.54 410.76 114.54c169.34 0 295.88-38.37 379.61-115.13 83.74-76.76 110.02-177.65 78.84-302.678h-401.19c25.65 102.868-15.73 154.308-124.14 154.308-41.94 0-80.07-11.68-114.37-35.02-34.31-23.34-55.81-52.421-64.49-87.241-8.88-35.61 1.33-64.489 30.62-86.649 29.3-22.16 80.35-40.359 153.16-54.601 72.81-14.25 135.63-31.258 188.47-51.039 176.5-66.469 243.35-185.559 200.54-357.282-29.2-117.109-105-212.468-227.41-286.058s-266.3-110.39078-431.69-110.39078c-109.99 0-203.18 19.78128-279.57 59.35158-76.39 39.5702-130.23 93.3792-161.54 161.4292-31.3 68.051-37.58 139.668-18.84 214.84h373.9c-13.21-59.351-4.23-102.672 26.94-129.968 31.18-27.301 76.44-40.954 135.79-40.954 54.6 0 98.31 11.071 131.14 33.231 32.82 22.16 53.67 51.043 62.55 86.652"/><path d="m1661.71 1267.72c99.89 46.34 208.67 69.51 326.35 69.51 180.42 0 308.9-55.98 385.43-167.95 76.54-111.97 89.85-268.061 39.93-468.26l-38.77-155.5h-795.27c-3.71-72.008 13.45-128.59 51.45-169.731 38.01-41.148 95.4-61.73 172.16-61.73 126.61 0 236.57 44.32 329.89 132.941l128.93-216.02c-67.02-68.851-151.31-123.652-252.87-164.4019-101.55-40.75-204.95-61.12888-310.2-61.12888-197.04 0-341.84 58.76168-434.4 176.26978-92.57 117.511-115.37 270.429-68.41 458.761l4.99 20.008c188.47 243.063 376.46 488.392 460.79 607.232zm247.03-239.1c-117.11 0-206.09-77.55-266.91-232.651h403.57l7.69 30.871c17.57 64.09 13.73 113.75-11.52 148.961-25.25 35.209-69.52 52.819-132.83 52.819"/><path d="m209 1666.3c47.41 40.6 113.93 73.94 171.762 50.46 103.988-42.22 383.367-605.49 383.367-605.49s390.801 555.2 531.161 605.83c47.89 17.27 113.53-13.1 163.6-50.54 175.73-131.37 193.88-314.66 178.69-365.51-19.1-63.92-989.818-1295.60078-989.818-1295.60078-29.032 11.83988-604.1917 1079.37078-635.3636 1262.03078-29.789 174.56 71.5625 293.16 196.6016 398.82" fill-rule="evenodd"/></g></svg>